{"title":"I.Love.You.Beth.Cooper.2009.BRRip.XviD.MP3-RARBG","uid":13348266,"size":1381035586,"categoryP":"video","categoryS":"movies","magnet":"?xt=urn:btih:2850c45ca352bb6f9bc280e0f9aad3c6e142a32a&amp;dn=I.Love.You.Beth.Cooper.2009.BRRip.XviD.MP3-RARBG&amp;tr=udp%3A%2F%2Ftracker.leechers-paradise.org%3A6969&amp;tr=udp%3A%2F%2Fzer0day.ch%3A1337&amp;tr=udp%3A%2F%2Fopen.demonii.com%3A1337&amp;tr=udp%3A%2F%2Ftracker.coppersurfer.tk%3A6969&amp;tr=udp%3A%2F%2Fexodus.desync.com%3A6969","seeders":0,"leechers":0,"uploader":null,"files":5,"time":1454068916,"description":"\nVideo\r\nID                                       : 0\r\nFormat                                   : MPEG-4 Visual\r\nFormat profile                           :   \r\nFormat settings, BVOP                    : No\r\nFormat settings, QPel                    : No\r\nFormat settings, GMC                     : No warppoints\r\nFormat settings, Matrix                  : Default (H.263)\r\nCodec ID                                 : XVID\r\nCodec ID/Hint                            : XviD\r\nDuration                                 : 1h 41mn\r\nBit rate                                 : 1 600 Kbps\r\nWidth                                    : 720 pixels\r\nHeight                                   : 388 pixels\r\nDisplay aspect ratio                     : 1.85:1\r\nOriginal display aspect ratio            : 1.85:1\r\nFrame rate                               : 23.976 fps\r\nColor space                              : YUV\r\nChroma subsampling                       : 4:2:0\r\nBit depth                                : 8 bits\r\nScan type                                : Progressive\r\nCompression mode                         : Lossy\r\nBits/(Pixel*Frame)                       : 0.239\r\nStream size                              : 1.14 GiB (89%)\r\nTitle                                    : RARBG.COM - I.Love.You.Beth.Cooper.2009.BRRip.XviD.MP3-RARBG\r\nWriting library                          : Lavc56.60.100\r\n\r\nAudio\r\nID                                       : 1\r\nFormat                                   : MPEG Audio\r\nFormat version                           : Version 1\r\nFormat profile                           : Layer 3\r\nMode                                     : Joint stereo\r\nMode extension                           : MS Stereo\r\nCodec ID                                 : 55\r\nCodec ID/Hint                            : MP3\r\nDuration                                 : 1h 41mn\r\nBit rate mode                            : Constant\r\nBit rate                                 : 192 Kbps\r\nChannel(s)                               : 2 channels\r\nSampling rate                            : 48.0 KHz\r\nCompression mode                         : Lossy\r\nStream size                              : 140 MiB (11%)\r\nAlignment                                : Aligned on interleaves\r\nInterleave, duration                     : 24 ms (0.58 video frame)\r\nInterleave, preload duration             : 24 ms\r\nTitle                                    : RARBG.COM - I.Love.You.Beth.Cooper.2009.BRRip.XviD.MP3-RARBG\r\nWriting library                          : LAME3.99.5","torrent":{"xt":"urn:btih:2850c45ca352bb6f9bc280e0f9aad3c6e142a32a","amp;dn":"I.Love.You.Beth.Cooper.2009.BRRip.XviD.MP3-RARBG","amp;tr":["udp%3A%2F%2Ftracker.leechers-paradise.org%3A6969","udp%3A%2F%2Fzer0day.ch%3A1337","udp%3A%2F%2Fopen.demonii.com%3A1337","udp%3A%2F%2Ftracker.coppersurfer.tk%3A6969","udp%3A%2F%2Fexodus.desync.com%3A6969"],"infoHash":"2850c45ca352bb6f9bc280e0f9aad3c6e142a32a","infoHashBuffer":{"type":"Buffer","data":[40,80,196,92,163,82,187,111,155,194,128,224,249,170,211,198,225,66,163,42]},"announce":[],"urlList":[]}}